<svg width="42" height="25" viewBox="0 0 42 25" fill="none" xmlns="http://www.w3.org/2000/svg">
<path fill-rule="evenodd" clip-rule="evenodd" d="M35.5652 22.446C33.7904 23.4913 31.8517 24.0151 29.7495 24.0151C27.6481 24.0151 25.709 23.4913 23.9334 22.446C22.7971 21.7766 21.8192 20.9488 20.9853 19.9781C20.5162 19.4329 20.0883 18.8472 19.715 18.2067C18.6788 16.4261 18.1604 14.5039 18.1604 12.4412C18.1604 12.4031 18.1635 12.3662 18.1635 12.3285C18.144 11.2447 17.8628 10.2296 17.3292 9.30383C16.7748 8.34312 16.0294 7.58001 15.0922 7.01492C14.1549 6.44904 13.1323 6.16691 12.024 6.16691C10.8881 6.16691 9.85159 6.44904 8.91393 7.01492C7.97631 7.58001 7.23089 8.34312 6.67689 9.30383C6.12333 10.2642 5.84654 11.3102 5.84654 12.4412C5.84654 13.5713 6.12333 14.6098 6.67689 15.5571C7.23089 16.5039 7.97631 17.2595 8.91393 17.8249C9.85159 18.3904 10.8881 18.673 12.024 18.673C13.1323 18.673 14.1549 18.3976 15.0922 17.8464C15.8866 17.3789 16.5351 16.7547 17.0544 15.9932C17.5254 17.444 18.3673 19.2472 19.855 20.9428C19.246 21.5063 18.5783 22.0111 17.8405 22.446C16.0649 23.4913 14.1262 24.0151 12.024 24.0151C9.92176 24.0151 7.98348 23.4913 6.2083 22.446C4.43271 21.4004 3.01967 19.994 1.96876 18.2277C0.917439 16.461 0.392578 14.5325 0.392578 12.4412C0.392578 10.3777 0.917439 8.45583 1.96876 6.67563C3.01967 4.89507 4.43271 3.47443 6.2083 2.41488C7.98348 1.35536 9.92176 0.825195 12.024 0.825195C14.1262 0.825195 16.0649 1.34783 17.8405 2.39385C19.0202 3.08871 20.0333 3.94982 20.8867 4.96967C21.3191 5.48952 21.6844 6.08436 22.0374 6.68238C23.0556 8.40701 23.576 10.2658 23.6079 12.2554C23.606 12.3197 23.6143 12.3761 23.6143 12.4412C23.6143 13.5713 23.8911 14.6174 24.4447 15.5781C24.9986 16.5384 25.7441 17.2952 26.6817 17.8464C27.6193 18.3976 28.6419 18.673 29.7495 18.673C30.8858 18.673 31.9227 18.3904 32.8599 17.8249C33.7968 17.2595 34.5426 16.5039 35.097 15.5571C35.651 14.6098 35.9277 13.5713 35.9277 12.4412C35.9277 11.3102 35.651 10.2642 35.097 9.30383C34.5426 8.34312 33.7968 7.58001 32.8599 7.01492C31.9227 6.44904 30.8858 6.16691 29.7495 6.16691C28.6419 6.16691 27.6193 6.44904 26.6817 7.01492C25.9467 7.45778 25.3341 8.02684 24.8347 8.71296C24.3864 7.27407 23.5665 5.45223 22.0964 3.73156C22.6571 3.23395 23.2677 2.78632 23.9334 2.39385C25.709 1.34783 27.6481 0.825195 29.7495 0.825195C31.8517 0.825195 33.7904 1.35536 35.5652 2.41488C37.3408 3.47443 38.7546 4.89507 39.8047 6.67563C40.856 8.45583 41.3813 10.3777 41.3813 12.4412C41.3813 14.5325 40.856 16.461 39.8047 18.2277C38.7546 19.994 37.3408 21.4004 35.5652 22.446Z" fill="#429980"/>
</svg>
